<?xml version="1.0" encoding="utf-8"?>
<!-- Generator: Adobe Illustrator 21.1.0, SVG Export Plug-In . SVG Version: 6.00 Build 0)  -->
<svg version="1.1" id="Layer_1" xmlns:sketch="http://www.bohemiancoding.com/sketch/ns"
	 xmlns="http://www.w3.org/2000/svg" xmlns:xlink="http://www.w3.org/1999/xlink" x="0px" y="0px" viewBox="0 0 43.2 43.2"
	 style="enable-background:new 0 0 43.2 43.2;" xml:space="preserve">
<title>pen_pencil_edit_write</title>
<description>Created with Sketch (http://www.bohemiancoding.com/sketch)</description>
<g>
	<g>
		<path d="M39.8,19.9h-0.2l-5.9,0l-0.3,0c-0.9,0.1-1.6,0.8-1.6,1.7c0,1,0.8,1.7,1.7,1.8h6.3c0.9-0.1,1.6-0.8,1.6-1.8
			C41.5,20.7,40.7,19.9,39.8,19.9z M31.3,14.4L31.3,14.4l4.2-4.2l0.2-0.2c0.6-0.7,0.5-1.7-0.1-2.4c-0.7-0.7-1.7-0.7-2.4-0.1
			l-0.2,0.2L29,11.8L28.8,12c-0.6,0.7-0.6,1.7,0.1,2.4C29.5,15.1,30.6,15.1,31.3,14.4z M21.6,1.8c-0.9,0-1.7,0.7-1.8,1.6l0,0.2
			l0,5.9v0.3c0.1,0.9,0.8,1.6,1.7,1.6c1,0,1.8-0.8,1.8-1.7v0l0-5.9V3.4C23.3,2.5,22.6,1.8,21.6,1.8z M14.4,11.9l-4.2-4.2L10,7.5
			C9.3,6.9,8.3,7,7.6,7.6C6.9,8.3,6.9,9.3,7.5,10l0.2,0.2l4.2,4.1l0.2,0.2c0.7,0.6,1.7,0.6,2.4-0.1C15.1,13.7,15.1,12.6,14.4,11.9
			L14.4,11.9z M9.8,23.4c0.9-0.1,1.6-0.8,1.6-1.7c0-1-0.8-1.7-1.8-1.8H3.4c-0.9,0.1-1.6,0.8-1.6,1.8c0,0.9,0.7,1.7,1.7,1.8h0.2
			l5.9,0L9.8,23.4L9.8,23.4z M11.9,28.8L11.9,28.8L7.7,33l-0.2,0.2C6.9,33.9,7,35,7.6,35.6c0.7,0.7,1.7,0.7,2.4,0.1l0.2-0.2l4.1-4.2
			l0.2-0.2c0.6-0.7,0.6-1.7-0.1-2.4C13.7,28.1,12.6,28.1,11.9,28.8z M23.4,33.4c-0.1-0.9-0.8-1.6-1.7-1.6c-1,0-1.8,0.8-1.8,1.7v0
			l0,5.9l0,0.3c0.1,0.9,0.8,1.6,1.8,1.6c0.9,0,1.7-0.7,1.8-1.6v-0.2l0-5.9V33.4z M35.6,33l-4.2-4.1l-0.2-0.2
			c-0.7-0.6-1.7-0.6-2.4,0.1c-0.7,0.7-0.7,1.8,0,2.5l0,0l4.2,4.2l0.2,0.2c0.7,0.6,1.7,0.5,2.4-0.1c0.7-0.7,0.7-1.7,0.1-2.4L35.6,33z
			"/>
	</g>
</g>
</svg>
