<?xml version="1.0" encoding="utf-8"?>
<!-- Generator: Adobe Illustrator 21.1.0, SVG Export Plug-In . SVG Version: 6.00 Build 0)  -->
<svg version="1.1" id="Layer_1" xmlns="http://www.w3.org/2000/svg" xmlns:xlink="http://www.w3.org/1999/xlink" x="0px" y="0px"
	 viewBox="0 0 100 100" style="enable-background:new 0 0 100 100;" xml:space="preserve">
<path d="M86.1,59.4c0.4,0.2,0.7,0.5,0.9,0.9c0.2,0.4,0.2,0.8,0.1,1.3c-1.8,5.5-4.6,10.4-8.6,14.7c-0.3,0.3-0.7,0.5-1.1,0.6
	c-0.4,0.1-0.8,0-1.2-0.2l-6.6-3.9c-2.8,2.4-6,4.2-9.5,5.5v7.7c0,0.4-0.1,0.8-0.4,1.2c-0.3,0.4-0.6,0.6-1,0.7
	c-5.7,1.2-11.4,1.2-17.2,0c-0.4-0.1-0.8-0.3-1-0.7c-0.3-0.4-0.4-0.8-0.4-1.2v-7.7c-3.5-1.3-6.7-3.1-9.5-5.5l-6.6,3.9
	c-0.4,0.2-0.8,0.3-1.2,0.2c-0.4-0.1-0.8-0.3-1.1-0.6c-4-4.3-6.8-9.2-8.6-14.7c-0.1-0.4-0.1-0.8,0.1-1.3c0.2-0.4,0.4-0.7,0.9-0.9
	l6.6-3.9c-0.6-3.6-0.6-7.3,0-10.9l-6.6-3.9c-0.4-0.2-0.7-0.5-0.9-0.9c-0.2-0.4-0.2-0.8-0.1-1.3c1.8-5.5,4.6-10.4,8.6-14.7
	c0.3-0.3,0.7-0.5,1.1-0.6c0.4-0.1,0.8,0,1.2,0.2l6.6,3.9c2.8-2.4,6-4.2,9.5-5.5v-7.7c0-0.4,0.1-0.8,0.4-1.2c0.3-0.4,0.6-0.6,1-0.7
	c5.7-1.2,11.4-1.2,17.2,0c0.4,0.1,0.8,0.3,1,0.7c0.3,0.4,0.4,0.8,0.4,1.2v7.7c3.5,1.3,6.7,3.1,9.5,5.5l6.6-3.9
	c0.4-0.2,0.8-0.3,1.2-0.2c0.4,0.1,0.8,0.3,1.1,0.6c4,4.3,6.8,9.2,8.6,14.7c0.1,0.4,0.1,0.8-0.1,1.3c-0.2,0.4-0.4,0.7-0.9,0.9
	l-6.6,3.9c0.6,3.6,0.6,7.3,0,10.9L86.1,59.4z M58.8,41.2c-2.4-2.4-5.4-3.7-8.8-3.7s-6.4,1.2-8.8,3.7s-3.7,5.4-3.7,8.8
	s1.2,6.4,3.7,8.8s5.4,3.7,8.8,3.7s6.4-1.2,8.8-3.7s3.7-5.4,3.7-8.8S61.3,43.6,58.8,41.2z"/>
</svg>
