<?xml version="1.0" encoding="utf-8"?>
<!-- Generator: Adobe Illustrator 21.1.0, SVG Export Plug-In . SVG Version: 6.00 Build 0)  -->
<svg version="1.1" id="Layer_1" xmlns="http://www.w3.org/2000/svg" xmlns:xlink="http://www.w3.org/1999/xlink" x="0px" y="0px"
	 viewBox="0 0 100 100" style="enable-background:new 0 0 100 100;" xml:space="preserve">
<path d="M94.3,49.4c0.3,0.3,0.5,0.7,0.5,1.3c0.1,0.5-0.1,1-0.4,1.4l-3.9,4.8c-0.3,0.4-0.7,0.6-1.3,0.6c-0.5,0-1-0.2-1.4-0.5
	L51.2,26.9c-0.4-0.3-0.8-0.5-1.2-0.5s-0.8,0.2-1.2,0.5L12.1,57c-0.4,0.3-0.9,0.5-1.4,0.5c-0.5,0-0.9-0.2-1.2-0.6L5.5,52
	c-0.3-0.4-0.4-0.9-0.4-1.4c0.1-0.5,0.2-0.9,0.5-1.3l39.7-32.6c1.4-1.1,2.9-1.7,4.7-1.7s3.4,0.6,4.8,1.7l13.9,11.6V16.9
	c0-0.5,0.2-1,0.5-1.3c0.4-0.4,0.8-0.5,1.3-0.5h8.7c0.5,0,1,0.2,1.3,0.5c0.4,0.4,0.5,0.8,0.5,1.3v21.7L94.3,49.4z M81.2,58.9
	c0-0.6-0.2-1.1-0.6-1.6l-29.4-24c-0.4-0.3-0.8-0.5-1.2-0.5s-0.8,0.2-1.2,0.5l-29.4,24c-0.4,0.4-0.6,0.9-0.6,1.6v22.3
	c0,1,0.4,1.9,1.1,2.7c0.7,0.7,1.6,1.1,2.7,1.1h18.1c0.5,0,1-0.2,1.3-0.5c0.4-0.4,0.5-0.8,0.5-1.3V65.6c0-0.5,0.2-1,0.5-1.3
	c0.4-0.4,0.8-0.5,1.3-0.5h11.2c0.5,0,1,0.2,1.3,0.5c0.4,0.4,0.5,0.8,0.5,1.3v17.5c0,0.5,0.2,1,0.5,1.3c0.4,0.4,0.8,0.5,1.3,0.5h18.1
	c1,0,1.9-0.4,2.7-1.1c0.7-0.7,1.1-1.6,1.1-2.7V58.9z"/>
</svg>
