<?xml version="1.0" encoding="utf-8"?>
<!-- Generator: Adobe Illustrator 21.1.0, SVG Export Plug-In . SVG Version: 6.00 Build 0)  -->
<svg version="1.1" id="Layer_1" xmlns="http://www.w3.org/2000/svg" xmlns:xlink="http://www.w3.org/1999/xlink" x="0px" y="0px"
	 viewBox="0 0 100 100" style="enable-background:new 0 0 100 100;" xml:space="preserve">
<path d="M90,50H10V37.5c0-2.1,0.7-3.9,2.2-5.3c1.5-1.5,3.2-2.2,5.3-2.2H30v-7.5c0-2.1,0.7-3.9,2.2-5.3c1.5-1.5,3.2-2.2,5.3-2.2h25
	c2.1,0,3.9,0.7,5.3,2.2c1.5,1.5,2.2,3.2,2.2,5.3V30h12.5c2.1,0,3.9,0.7,5.3,2.2c1.5,1.5,2.2,3.2,2.2,5.3V50z M90,55v22.5
	c0,2.1-0.7,3.9-2.2,5.3c-1.5,1.5-3.2,2.2-5.3,2.2h-65c-2.1,0-3.9-0.7-5.3-2.2c-1.5-1.5-2.2-3.2-2.2-5.3V55h30v3.1
	c0,0.5,0.2,1,0.5,1.3s0.8,0.5,1.3,0.5h16.2c0.5,0,1-0.2,1.3-0.5s0.5-0.8,0.5-1.3V55H90z M40,25v5h20v-5H40z"/>
</svg>
